<svg width="43" height="63" viewBox="0 0 43 63" fill="none" xmlns="http://www.w3.org/2000/svg">
<g clip-path="url(#clip0)">
<path d="M34.5184 0H8.48169V8.97152H30.9009C31.3759 8.97152 31.8463 9.06609 32.2852 9.24985C32.7241 9.4336 33.1229 9.70292 33.4588 10.0425C33.7948 10.382 34.0612 10.7851 34.243 11.2287C34.4248 11.6723 34.5184 12.1477 34.5184 12.6279V13.1582H43V8.57279C43 6.29914 42.1064 4.11862 40.5158 2.51091C38.9252 0.903202 36.7679 0 34.5184 0V0Z" fill="#FFD300"/>
<path d="M8.48165 43.2627H34.5183V34.2911H12.0321C11.0905 34.2911 10.1874 33.9131 9.52156 33.2401C8.85572 32.5671 8.48165 31.6543 8.48165 30.7025V30.1044H0V34.6899C0 36.9635 0.8936 39.144 2.48422 40.7517C4.07484 42.3595 6.23218 43.2627 8.48165 43.2627Z" fill="#FFD300"/>
<path d="M34.5183 17.1456H12.0321C11.0905 17.1456 10.1874 16.7675 9.52156 16.0945C8.85572 15.4215 8.48165 14.5087 8.48165 13.557V8.97152H0V17.5443C0 19.8179 0.8936 21.9985 2.48422 23.6062C4.07484 25.2139 6.23218 26.1171 8.48165 26.1171H30.9679C31.9095 26.1171 32.8126 26.4952 33.4784 27.1682C34.1443 27.8412 34.5183 28.7539 34.5183 29.7057V34.2911H43V25.7184C43 23.4447 42.1064 21.2642 40.5158 19.6565C38.9252 18.0488 36.7678 17.1456 34.5183 17.1456Z" fill="#FFD300"/>
<path d="M17 46V58H26V46H17Z" fill="#FFD300"/>
</g>
<defs>
<clipPath id="clip0">
<rect width="43" height="63" fill="white"/>
</clipPath>
</defs>
</svg>
