<svg width="44" height="63" viewBox="0 0 44 63" fill="none" xmlns="http://www.w3.org/2000/svg">
<g clip-path="url(#clip0)">
<path d="M35.321 0H8.67889V8.97153H31.6195C32.1056 8.97153 32.5869 9.0661 33.036 9.24985C33.485 9.43359 33.8932 9.70292 34.237 10.0425C34.5807 10.382 34.8533 10.7851 35.0393 11.2287C35.2254 11.6723 35.321 12.1477 35.321 12.6279V13.1582H44V8.57279C44 6.29914 43.0856 4.11861 41.4581 2.51091C39.8304 0.903202 37.6228 0 35.321 0Z" fill="#3C3C3C"/>
<path d="M8.6789 43.2628H35.321V34.2913H12.3119C11.3484 34.2913 10.4243 33.9133 9.743 33.2403C9.06166 32.5671 8.6789 31.6544 8.6789 30.7026V30.1045H0V34.69C0 36.9636 0.914382 39.1442 2.54198 40.7519C4.16959 42.3596 6.37712 43.2628 8.6789 43.2628Z" fill="#3C3C3C"/>
<path d="M35.321 17.1458H12.3119C11.3484 17.1458 10.4243 16.7676 9.74298 16.0947C9.06166 15.4217 8.6789 14.5089 8.6789 13.5571V8.97168H0V17.5444C0 19.8182 0.914382 21.9986 2.54198 23.6063C4.16959 25.2141 6.37712 26.1173 8.6789 26.1173H31.6881C32.6516 26.1173 33.5758 26.4953 34.2571 27.1683C34.9384 27.8413 35.321 28.7541 35.321 29.7059V34.2913H44V25.7185C44 23.4449 43.0856 21.2644 41.4581 19.6566C39.8304 18.049 37.6229 17.1458 35.321 17.1458Z" fill="#3C3C3C"/>
<path d="M17 46V58H26V46H17Z" fill="#3C3C3C"/>
</g>
<defs>
<clipPath id="clip0">
<rect width="44" height="63" fill="white"/>
</clipPath>
</defs>
</svg>
