<svg width="65" height="65" viewBox="0 0 65 65" fill="none" xmlns="http://www.w3.org/2000/svg">
<path d="M4.0625 57.8906V7.10938C4.0625 6.30129 4.38351 5.52631 4.95491 4.95491C5.52631 4.38351 6.30129 4.0625 7.10938 4.0625H38.5938V9.14062C38.5938 9.94871 38.9148 10.7237 39.4862 11.2951C40.0576 11.8665 40.8325 12.1875 41.6406 12.1875H46.7188V32.5H48.75V11.1719C48.7499 10.9025 48.6429 10.6443 48.4524 10.4538L40.3274 2.32883C40.137 2.13835 39.8787 2.03131 39.6094 2.03125H7.10938C5.76307 2.03286 4.47236 2.5684 3.52038 3.52038C2.5684 4.47236 2.03286 5.76307 2.03125 7.10938V57.8906C2.03286 59.2369 2.5684 60.5276 3.52038 61.4796C4.47236 62.4316 5.76307 62.9671 7.10938 62.9688H38.5938V60.9375H7.10938C6.30129 60.9375 5.52631 60.6165 4.95491 60.0451C4.38351 59.4737 4.0625 58.6987 4.0625 57.8906ZM40.625 9.14062V5.49859L45.2827 10.1562H41.6406C41.3713 10.1562 41.1129 10.0492 40.9225 9.85878C40.732 9.66831 40.625 9.40999 40.625 9.14062Z" fill="#3C3C3C"/>
<path d="M33.5156 20.3125C33.5158 19.2338 33.3011 18.1659 32.8842 17.171C32.4672 16.1761 31.8564 15.2742 31.0872 14.5179C30.318 13.7616 29.406 13.166 28.4042 12.7659C27.4024 12.3658 26.331 12.1692 25.2525 12.1875C23.1804 12.2446 21.2065 13.0828 19.7265 14.5341C18.2464 15.9853 17.3695 17.9424 17.2717 20.0129C17.2318 21.1395 17.4267 22.2621 17.8438 23.3094C18.261 24.3567 18.8914 25.3059 19.695 26.0965C20.6175 26.9838 21.1842 28.1774 21.2885 29.4531H19.2968V31.4844H21.3281V33.5156C21.3281 34.0544 21.5421 34.571 21.923 34.952C22.304 35.3329 22.8206 35.5469 23.3593 35.5469H27.4218C27.9606 35.5469 28.4772 35.3329 28.8582 34.952C29.2391 34.571 29.4531 34.0544 29.4531 33.5156V31.4844H31.4843V29.4531H29.4907C29.5764 28.2089 30.119 27.0402 31.0141 26.1717C31.8083 25.417 32.4399 24.508 32.8701 23.5005C33.3002 22.4929 33.5199 21.4081 33.5156 20.3125ZM23.3593 33.5156V31.4844H27.4218V33.5156H23.3593ZM27.432 29.4531H23.3492C23.2346 27.6276 22.4369 25.9122 21.1148 24.6482C20.5081 24.0585 20.0325 23.3475 19.7193 22.5616C19.406 21.7756 19.2621 20.9324 19.2968 20.087C19.3411 18.9068 19.7274 17.7648 20.4087 16.8C21.0901 15.8352 22.0371 15.0892 23.1346 14.6528C24.2322 14.2164 25.4329 14.1083 26.5907 14.3417C27.7485 14.5752 28.8135 15.1401 29.6562 15.9677C30.2374 16.5386 30.6979 17.2204 31.0105 17.9727C31.3232 18.725 31.4815 19.5325 31.4761 20.3471C31.4707 21.1618 31.3017 21.967 30.9791 22.7151C30.6566 23.4632 30.187 24.1389 29.5983 24.702C28.3005 25.9542 27.5262 27.6522 27.432 29.4531Z" fill="#3C3C3C"/>
<path d="M25.3906 21.3281C25.1213 21.3281 24.8629 21.2211 24.6725 21.0307C24.482 20.8402 24.375 20.5819 24.375 20.3125H22.3438C22.3464 20.9404 22.5429 21.5522 22.9065 22.0641C23.2701 22.5761 23.783 22.9632 24.375 23.1725V27.4219H26.4062V23.1725C26.9983 22.9632 27.5112 22.5761 27.8748 22.0641C28.2384 21.5522 28.4349 20.9404 28.4375 20.3125H26.4062C26.4062 20.5819 26.2992 20.8402 26.1088 21.0307C25.9183 21.2211 25.66 21.3281 25.3906 21.3281Z" fill="#3C3C3C"/>
<path d="M24.375 8.125H26.4062V10.1562H24.375V8.125Z" fill="#3C3C3C"/>
<path d="M18.4173 10.2634L20.1764 9.24774L21.192 11.0068L19.4329 12.0224L18.4173 10.2634Z" fill="#3C3C3C"/>
<path d="M14.3279 15.1007L15.3436 13.3416L17.1026 14.3573L16.087 16.1163L14.3279 15.1007Z" fill="#3C3C3C"/>
<path d="M13.2031 19.2969H15.2344V21.3281H13.2031V19.2969Z" fill="#3C3C3C"/>
<path d="M14.3281 25.5242L16.0871 24.5085L17.1028 26.2676L15.3437 27.2832L14.3281 25.5242Z" fill="#3C3C3C"/>
<path d="M33.6791 26.2747L34.6948 24.5157L36.4538 25.5313L35.4382 27.2903L33.6791 26.2747Z" fill="#3C3C3C"/>
<path d="M35.5469 19.2969H37.5781V21.3281H35.5469V19.2969Z" fill="#3C3C3C"/>
<path d="M33.6766 14.3508L35.4357 13.3352L36.4513 15.0943L34.6923 16.1099L33.6766 14.3508Z" fill="#3C3C3C"/>
<path d="M29.5908 11.0124L30.6064 9.25333L32.3654 10.269L31.3498 12.028L29.5908 11.0124Z" fill="#3C3C3C"/>
<path d="M62.0973 45.7133L59.3734 45.3243C59.1893 44.7515 58.9587 44.1948 58.6838 43.6597L60.3342 41.4598C60.4809 41.2643 60.552 41.0223 60.5347 40.7785C60.5173 40.5347 60.4126 40.3053 60.2398 40.1324L57.3676 37.2602C57.1948 37.0876 56.9656 36.9831 56.722 36.9657C56.4784 36.9484 56.2367 37.0194 56.0412 37.1658L53.8403 38.8152C53.3051 38.5408 52.7484 38.3105 52.1757 38.1266L51.7867 35.4027C51.752 35.1607 51.6312 34.9394 51.4465 34.7794C51.2619 34.6193 51.0256 34.5312 50.7812 34.5313H46.7188C46.4744 34.5312 46.2381 34.6193 46.0535 34.7794C45.8688 34.9394 45.748 35.1607 45.7133 35.4027L45.3243 38.1266C44.7516 38.3103 44.1948 38.5406 43.6597 38.8152L41.4588 37.1658C41.2633 37.0194 41.0216 36.9484 40.778 36.9657C40.5344 36.9831 40.3052 37.0876 40.1324 37.2602L37.2602 40.1324C37.0874 40.3053 36.9827 40.5347 36.9653 40.7785C36.948 41.0223 37.0191 41.2643 37.1658 41.4598L38.8162 43.6597C38.5413 44.1948 38.3107 44.7515 38.1266 45.3243L35.4027 45.7133C35.1607 45.748 34.9394 45.8688 34.7794 46.0535C34.6193 46.2381 34.5312 46.4744 34.5313 46.7188V50.7812C34.5312 51.0256 34.6193 51.2619 34.7794 51.4465C34.9394 51.6312 35.1607 51.752 35.4027 51.7867L38.1266 52.1757C38.3107 52.7485 38.5413 53.3052 38.8162 53.8403L37.1658 56.0402C37.0191 56.2357 36.948 56.4777 36.9653 56.7215C36.9827 56.9653 37.0874 57.1947 37.2602 57.3676L40.1324 60.2398C40.3052 60.4124 40.5344 60.5169 40.778 60.5343C41.0216 60.5516 41.2633 60.4806 41.4588 60.3342L43.6597 58.6848C44.1948 58.9594 44.7516 59.1897 45.3243 59.3734L45.7133 62.0973C45.748 62.3393 45.8688 62.5606 46.0535 62.7206C46.2381 62.8807 46.4744 62.9688 46.7188 62.9688H50.7812C51.0256 62.9688 51.2619 62.8807 51.4465 62.7206C51.6312 62.5606 51.752 62.3393 51.7867 62.0973L52.1757 59.3734C52.7484 59.1895 53.3051 58.9592 53.8403 58.6848L56.0412 60.3342C56.2367 60.4806 56.4784 60.5516 56.722 60.5343C56.9656 60.5169 57.1948 60.4124 57.3676 60.2398L60.2398 57.3676C60.4126 57.1947 60.5173 56.9653 60.5347 56.7215C60.552 56.4777 60.4809 56.2357 60.3342 56.0402L58.6838 53.8403C58.9587 53.3052 59.1893 52.7485 59.3734 52.1757L62.0973 51.7867C62.3393 51.752 62.5606 51.6312 62.7206 51.4465C62.8807 51.2619 62.9688 51.0256 62.9688 50.7812V46.7188C62.9688 46.4744 62.8807 46.2381 62.7206 46.0535C62.5606 45.8688 62.3393 45.748 62.0973 45.7133ZM60.9375 49.9007L58.436 50.2582C58.2372 50.2867 58.0513 50.3735 57.9018 50.5076C57.7523 50.6418 57.6459 50.8172 57.5961 51.0118C57.3817 51.8532 57.0476 52.6593 56.6038 53.4056C56.5012 53.5787 56.4523 53.7783 56.4634 53.9792C56.4744 54.1801 56.5449 54.3732 56.6658 54.534L58.1811 56.5551L56.5561 58.1801L54.534 56.6648C54.3732 56.5442 54.1802 56.4741 53.9796 56.4632C53.7789 56.4524 53.5795 56.5013 53.4066 56.6038C52.661 57.0476 51.855 57.3811 51.0138 57.5941C50.8187 57.6436 50.6427 57.7499 50.5082 57.8997C50.3737 58.0494 50.2866 58.2357 50.2582 58.435L49.9007 60.9375H47.5993L47.2428 58.436C47.2144 58.2367 47.1274 58.0504 46.9928 57.9007C46.8583 57.751 46.6823 57.6446 46.4872 57.5951C45.646 57.3821 44.8401 57.0486 44.0944 56.6048C43.9215 56.5023 43.7221 56.4534 43.5215 56.4642C43.3208 56.4751 43.1278 56.5452 42.967 56.6658L40.9449 58.1811L39.3199 56.5561L40.8352 54.535C40.9562 54.3742 41.0266 54.1811 41.0376 53.9802C41.0487 53.7793 40.9998 53.5797 40.8972 53.4066C40.4535 52.6603 40.1193 51.8542 39.9049 51.0128C39.8551 50.8182 39.7488 50.6428 39.5993 50.5086C39.4497 50.3745 39.2638 50.2877 39.065 50.2592L36.5625 49.9007V47.5993L39.064 47.2418C39.2628 47.2133 39.4487 47.1265 39.5982 46.9924C39.7477 46.8582 39.8541 46.6828 39.9039 46.4882C40.1183 45.6468 40.4525 44.8407 40.8962 44.0944C40.9988 43.9213 41.0477 43.7217 41.0366 43.5208C41.0256 43.3199 40.9551 43.1268 40.8342 42.966L39.3189 40.9449L40.9439 39.3199L42.966 40.8352C43.1268 40.9558 43.3198 41.0259 43.5204 41.0368C43.7211 41.0476 43.9205 40.9987 44.0934 40.8962C44.839 40.4524 45.645 40.1189 46.4862 39.9059C46.6813 39.8564 46.8573 39.7501 46.9918 39.6003C47.1263 39.4506 47.2134 39.2643 47.2418 39.065L47.5993 36.5625H49.9007L50.2572 39.064C50.2856 39.2633 50.3726 39.4496 50.5072 39.5993C50.6417 39.749 50.8177 39.8554 51.0128 39.9049C51.854 40.1179 52.6599 40.4514 53.4056 40.8952C53.5785 40.9977 53.7779 41.0466 53.9785 41.0358C54.1792 41.0249 54.3722 40.9548 54.533 40.8342L56.5551 39.3189L58.1801 40.9439L56.6648 42.965C56.5438 43.1258 56.4734 43.3189 56.4624 43.5198C56.4513 43.7207 56.5002 43.9203 56.6028 44.0934C57.0465 44.8397 57.3807 45.6458 57.5951 46.4872C57.6449 46.6818 57.7512 46.8572 57.9007 46.9914C58.0503 47.1255 58.2362 47.2123 58.435 47.2408L60.9375 47.5993V49.9007Z" fill="#3C3C3C"/>
<path d="M48.75 42.6562C47.5448 42.6562 46.3666 43.0136 45.3645 43.6832C44.3624 44.3528 43.5813 45.3045 43.1201 46.418C42.6589 47.5315 42.5382 48.7568 42.7733 49.9388C43.0085 51.1209 43.5888 52.2067 44.4411 53.0589C45.2933 53.9112 46.3791 54.4915 47.5612 54.7267C48.7432 54.9618 49.9685 54.8411 51.082 54.3799C52.1955 53.9187 53.1472 53.1376 53.8168 52.1355C54.4864 51.1334 54.8438 49.9552 54.8438 48.75C54.8421 47.1343 54.1996 45.5853 53.0572 44.4428C51.9147 43.3004 50.3657 42.6579 48.75 42.6562ZM48.75 52.8125C47.9465 52.8125 47.1611 52.5742 46.493 52.1278C45.8249 51.6814 45.3042 51.047 44.9967 50.3047C44.6893 49.5623 44.6088 48.7455 44.7656 47.9574C44.9223 47.1694 45.3092 46.4455 45.8774 45.8774C46.4455 45.3092 47.1694 44.9223 47.9574 44.7656C48.7455 44.6088 49.5623 44.6893 50.3047 44.9967C51.047 45.3042 51.6815 45.8249 52.1278 46.493C52.5742 47.1611 52.8125 47.9465 52.8125 48.75C52.8125 49.8274 52.3845 50.8608 51.6226 51.6226C50.8608 52.3845 49.8274 52.8125 48.75 52.8125Z" fill="#3C3C3C"/>
<path d="M47.7344 38.5938H49.7656V40.625H47.7344V38.5938Z" fill="#3C3C3C"/>
<path d="M40.8416 42.2764L42.2779 40.8401L43.7142 42.2764L42.2779 43.7127L40.8416 42.2764Z" fill="#3C3C3C"/>
<path d="M38.5938 47.7344H40.625V49.7656H38.5938V47.7344Z" fill="#3C3C3C"/>
<path d="M40.8403 55.2121L42.2766 53.7758L43.713 55.2121L42.2766 56.6484L40.8403 55.2121Z" fill="#3C3C3C"/>
<path d="M47.7344 56.875H49.7656V58.9062H47.7344V56.875Z" fill="#3C3C3C"/>
<path d="M53.7659 55.2003L55.2022 53.764L56.6385 55.2003L55.2022 56.6366L53.7659 55.2003Z" fill="#3C3C3C"/>
<path d="M56.875 47.7344H58.9062V49.7656H56.875V47.7344Z" fill="#3C3C3C"/>
<path d="M53.7682 42.3L55.2045 40.8637L56.6408 42.3L55.2045 43.7363L53.7682 42.3Z" fill="#3C3C3C"/>
<path d="M8.125 39.6094H26.4062V41.6406H8.125V39.6094Z" fill="#3C3C3C"/>
<path d="M28.4375 39.6094H32.5V41.6406H28.4375V39.6094Z" fill="#3C3C3C"/>
<path d="M8.125 43.6719H32.5V45.7031H8.125V43.6719Z" fill="#3C3C3C"/>
<path d="M8.125 47.7344H10.1562V49.7656H8.125V47.7344Z" fill="#3C3C3C"/>
<path d="M12.1875 47.7344H32.5V49.7656H12.1875V47.7344Z" fill="#3C3C3C"/>
<path d="M8.125 51.7969H32.5V53.8281H8.125V51.7969Z" fill="#3C3C3C"/>
</svg>
