<svg width="65" height="63" viewBox="0 0 65 63" fill="none" xmlns="http://www.w3.org/2000/svg">
<g clip-path="url(#clip0)">
<path d="M33.3644 60.4329C33.1284 60.2077 32.8009 60.0781 32.467 60.0781C32.133 60.0781 31.8054 60.2077 31.5694 60.4329C31.3333 60.6582 31.1974 60.9706 31.1974 61.2891C31.1974 61.6075 31.3332 61.92 31.5694 62.1452C31.8054 62.3704 32.133 62.5 32.467 62.5C32.8009 62.5 33.1284 62.3704 33.3644 62.1452C33.6005 61.92 33.7365 61.6075 33.7365 61.2891C33.7365 60.9706 33.6007 60.6582 33.3644 60.4329Z" fill="#3C3C3C"/>
<path d="M58.2156 40.1063L53.9807 39.1413V37.5389C56.3314 36.1218 57.897 33.6225 57.897 30.7797V26.2669C57.897 21.86 54.1381 18.2747 49.5178 18.2747C47.0255 18.2747 44.7851 19.3193 43.2489 20.9721C41.9034 16.5276 37.6001 13.2678 32.5132 13.2678H32.5131C27.4179 13.2678 23.1088 16.5379 21.7708 20.9933C20.2342 19.3283 17.9856 18.2747 15.4826 18.2747C10.8622 18.2747 7.10341 21.8601 7.10341 26.2669V30.7797C7.10341 33.6227 8.66899 36.1219 11.0197 37.5389V39.1413L6.78476 40.1063C2.78992 41.0164 0 44.388 0 48.3053V56.4453C0 57.1141 0.568496 57.6562 1.26953 57.6562H11.4211V61.2891C11.4211 61.9579 11.9896 62.5 12.6906 62.5H26.6179C27.3189 62.5 27.8874 61.9579 27.8874 61.2891C27.8874 60.6203 27.3189 60.0781 26.6179 60.0781H20.9503V54.7485C20.9503 54.0797 20.3818 53.5376 19.6808 53.5376C18.9797 53.5376 18.4113 54.0797 18.4113 54.7485V60.0781H13.96V54.6146C13.96 50.5078 16.8843 46.9713 21.0713 46.0143L27.3152 44.5871L31.3328 53.3053C31.5354 53.745 31.9913 54.029 32.4948 54.029H32.4949C32.9984 54.029 33.4544 53.7452 33.6571 53.3055L37.6705 44.5999L43.8963 46.0185C48.0872 46.9734 51.014 50.5106 51.014 54.6203V55.9716C50.9491 56.1171 50.913 56.2771 50.913 56.4452C50.913 56.6133 50.9491 56.7734 51.014 56.9188V60.0781H46.5888V54.7485C46.5888 54.0797 46.0203 53.5376 45.3192 53.5376C44.6182 53.5376 44.0497 54.0797 44.0497 54.7485V60.0781H37.8322C37.1311 60.0781 36.5626 60.6203 36.5626 61.2891C36.5626 61.9579 37.1311 62.5 37.8322 62.5H52.2835C52.9845 62.5 53.553 61.9579 53.553 61.2891V57.6562H63.7305C64.4315 57.6562 65 57.1141 65 56.4453V48.3053C65 44.388 62.2101 41.0164 58.2156 40.1063ZM49.5177 20.6966C52.7379 20.6966 55.3578 23.1955 55.3578 26.2669V26.5668V26.6885H51.7265C48.9836 26.6885 46.2883 26.0015 43.9128 24.6994C44.6245 22.3887 46.8678 20.6966 49.5177 20.6966ZM43.6776 30.5821C43.682 30.4585 43.6852 27.3261 43.6852 27.3261C46.181 28.4969 48.9324 29.1105 51.7267 29.1105H55.3579V30.7799C55.3578 33.8513 52.7379 36.35 49.5177 36.35C46.2975 36.35 43.6776 33.8512 43.6776 30.7797V30.5821ZM23.8799 23.9241C23.8799 19.3836 27.7527 15.6898 32.5131 15.6898C37.2733 15.6898 41.1461 19.3837 41.1461 23.9241V24.082L36.4343 21.4416C35.8997 21.1419 35.2164 21.2546 34.8182 21.7079C32.9875 23.7917 30.3027 24.9869 27.4522 24.9869H23.8799V23.9241ZM9.64222 26.5669V26.2669C9.64222 23.1954 12.2621 20.6966 15.4823 20.6966C18.1322 20.6966 20.3755 22.3887 21.087 24.6995C18.7116 26.0015 16.0164 26.6886 13.2733 26.6886H9.64222V26.5669ZM9.64222 30.7797V29.1103H13.2735C16.0705 29.1103 18.8247 28.4957 21.3224 27.3226V30.7797C21.3224 33.8513 18.7025 36.35 15.4823 36.35C12.2621 36.35 9.64222 33.8512 9.64222 30.7797ZM11.4211 54.6146V55.2344H7.61719V49.8543C7.61719 49.1855 7.04869 48.6434 6.34766 48.6434C5.64662 48.6434 5.07812 49.1855 5.07812 49.8543V55.2344H2.53906V48.3053C2.53906 45.5134 4.5274 43.1106 7.37433 42.4619L11.3985 41.5448L14.0249 47.5456C12.3822 49.4921 11.4211 51.9593 11.4211 54.6146ZM15.4826 44.5895L13.5545 40.1842C13.5567 40.1553 13.5585 40.1264 13.5585 40.097V38.557C14.1766 38.696 14.8203 38.7719 15.4823 38.7719C16.1415 38.7719 16.7821 38.6966 17.3978 38.5588V40.0204C17.3964 40.0432 17.3958 40.0659 17.3958 40.0887C17.3958 40.1268 17.3996 40.1647 17.4034 40.2026L15.4826 44.5895ZM20.4797 43.6591C19.73 43.8305 19.0136 44.0689 18.3334 44.3629L19.57 41.5388L23.5947 42.4587C23.9069 42.5301 24.2111 42.6244 24.5055 42.739L20.4797 43.6591ZM26.7811 41.1352C25.9841 40.6636 25.1097 40.3145 24.1865 40.1036L19.9368 39.1323V37.5441C20.9937 36.9088 21.8914 36.0548 22.5606 35.0488C23.5177 36.8324 24.9867 38.3259 26.7811 39.3533V41.1352ZM35.6653 42.9328L32.4952 49.8093L29.3202 42.9194V40.4219C30.3323 40.7104 31.4039 40.866 32.5129 40.866C33.6073 40.866 34.6652 40.7144 35.6653 40.4333V42.9328ZM32.5131 38.4442C27.7526 38.4441 23.8799 34.7502 23.8799 30.2097V27.4088H27.4521C30.6924 27.4088 33.7636 26.1873 36.0325 24.0254L41.1387 26.8867V30.494C40.9807 34.9031 37.1735 38.4442 32.5131 38.4442ZM38.2044 39.3761H38.2045C40.01 38.3522 41.4893 36.8575 42.4538 35.0701C43.1215 36.0668 44.0139 36.9131 45.0632 37.5441V39.1323L40.8135 40.1036C39.8847 40.3159 39.0053 40.6681 38.2044 41.144V39.3761ZM44.4862 43.6631L40.4713 42.7482C40.7729 42.6295 41.0848 42.532 41.4053 42.4587L45.4203 41.5411L46.6619 44.3778C45.9729 44.0785 45.2466 43.8364 44.4862 43.6631ZM47.594 40.2207C47.599 40.1767 47.6027 40.1325 47.6027 40.0882C47.6027 40.0769 47.6026 40.0656 47.6022 40.0543V38.5588C48.2179 38.6967 48.8585 38.7719 49.5177 38.7719C50.1797 38.7719 50.8234 38.696 51.4415 38.5569V40.0969C51.4415 40.119 51.4432 40.1406 51.4445 40.1624L49.5061 44.5895L47.594 40.2207ZM62.4609 55.2344H59.9219V49.8543C59.9219 49.1855 59.3534 48.6434 58.6523 48.6434C57.9513 48.6434 57.3828 49.1855 57.3828 49.8543V55.2344H53.553V54.6204C53.553 51.9686 52.595 49.5048 50.9571 47.5601L53.5917 41.5427L57.6257 42.4619C60.4726 43.1106 62.4609 45.5134 62.4609 48.3053V55.2344Z" fill="#3C3C3C"/>
<path d="M29.1394 28.8577C28.9034 28.6325 28.5759 28.5029 28.242 28.5029C27.9081 28.5029 27.5806 28.6325 27.3444 28.8577C27.1083 29.083 26.9725 29.3954 26.9725 29.7139C26.9725 30.0323 27.1082 30.3448 27.3444 30.57C27.5807 30.7952 27.9081 30.9248 28.242 30.9248C28.5772 30.9248 28.9034 30.7952 29.1394 30.57C29.3768 30.3448 29.5115 30.0323 29.5115 29.7139C29.5115 29.3954 29.3768 29.083 29.1394 28.8577Z" fill="#3C3C3C"/>
<path d="M37.6288 28.8577C37.3928 28.6325 37.0652 28.5029 36.7314 28.5029C36.3975 28.5029 36.0699 28.6325 35.8338 28.8577C35.5977 29.083 35.4618 29.3954 35.4618 29.7139C35.4618 30.0323 35.5975 30.3448 35.8338 30.57C36.0701 30.7952 36.3975 30.9248 36.7314 30.9248C37.0652 30.9248 37.3928 30.7952 37.6288 30.57C37.8662 30.3448 38.0009 30.0323 38.0009 29.7139C38.0009 29.3954 37.8662 29.083 37.6288 28.8577Z" fill="#3C3C3C"/>
<path d="M34.9435 32.934C34.4476 32.4611 33.644 32.4611 33.148 32.934C32.7726 33.2921 32.1618 33.2921 31.7864 32.934C31.2905 32.4611 30.4869 32.4611 29.9909 32.934C29.4951 33.4069 29.4951 34.1736 29.9909 34.6466C30.6736 35.2977 31.5703 35.6234 32.4671 35.6234C33.3639 35.6234 34.2606 35.2979 34.9433 34.6466C35.4392 34.1736 35.4392 33.4069 34.9435 32.934Z" fill="#3C3C3C"/>
<path d="M52.4924 7.03906H51.6217C50.9206 7.03906 50.3521 7.5812 50.3521 8.25C50.3521 8.9188 50.9206 9.46094 51.6217 9.46094H52.4924C53.1935 9.46094 53.762 8.9188 53.762 8.25C53.762 7.5812 53.1935 7.03906 52.4924 7.03906Z" fill="#3C3C3C"/>
<path d="M58.6523 7.03906H57.7816C57.0805 7.03906 56.512 7.5812 56.512 8.25C56.512 8.9188 57.0804 9.46094 57.7816 9.46094H58.6523C59.3534 9.46094 59.9219 8.9188 59.9219 8.25C59.9219 7.5812 59.3534 7.03906 58.6523 7.03906Z" fill="#3C3C3C"/>
<path d="M55.1371 9.56152C54.4361 9.56152 53.8676 10.1037 53.8676 10.7725V11.603C53.8676 12.2718 54.436 12.814 55.1371 12.814C55.8382 12.814 56.4067 12.2718 56.4067 11.603V10.7725C56.4067 10.1037 55.8382 9.56152 55.1371 9.56152Z" fill="#3C3C3C"/>
<path d="M55.1371 3.68591C54.4361 3.68591 53.8676 4.22805 53.8676 4.89685V5.72743C53.8676 6.39623 54.436 6.93837 55.1371 6.93837C55.8382 6.93837 56.4067 6.39623 56.4067 5.72743V4.89685C56.4067 4.22805 55.8382 3.68591 55.1371 3.68591Z" fill="#3C3C3C"/>
<path d="M7.14771 7.03906H6.27707C5.57603 7.03906 5.00754 7.5812 5.00754 8.25C5.00754 8.9188 5.57603 9.46094 6.27707 9.46094H7.14771C7.84875 9.46094 8.41725 8.9188 8.41725 8.25C8.41725 7.5812 7.84875 7.03906 7.14771 7.03906Z" fill="#3C3C3C"/>
<path d="M13.3076 7.03906H12.437C11.7359 7.03906 11.1674 7.5812 11.1674 8.25C11.1674 8.9188 11.7358 9.46094 12.437 9.46094H13.3076C14.0086 9.46094 14.5771 8.9188 14.5771 8.25C14.5771 7.5812 14.0086 7.03906 13.3076 7.03906Z" fill="#3C3C3C"/>
<path d="M9.79239 9.56152C9.09135 9.56152 8.52286 10.1037 8.52286 10.7725V11.603C8.52286 12.2718 9.09123 12.814 9.79239 12.814C10.4934 12.814 11.0619 12.2718 11.0619 11.603V10.7725C11.0619 10.1037 10.4934 9.56152 9.79239 9.56152Z" fill="#3C3C3C"/>
<path d="M9.79239 3.68591C9.09135 3.68591 8.52286 4.22805 8.52286 4.89685V5.72743C8.52286 6.39623 9.09123 6.93837 9.79239 6.93837C10.4934 6.93837 11.0619 6.39623 11.0619 5.72743V4.89685C11.0619 4.22805 10.4934 3.68591 9.79239 3.68591Z" fill="#3C3C3C"/>
<path d="M32.5 5.11212C31.799 5.11212 31.2305 5.65426 31.2305 6.32306V9.50904C31.2305 10.1778 31.799 10.72 32.5 10.72C33.201 10.72 33.7695 10.1778 33.7695 9.50904V6.32306C33.7695 5.65426 33.201 5.11212 32.5 5.11212Z" fill="#3C3C3C"/>
<path d="M33.3974 0.854805C33.1614 0.62957 32.8339 0.5 32.5 0.5C32.1661 0.5 31.8386 0.62957 31.6024 0.854805C31.3662 1.08004 31.2305 1.39246 31.2305 1.71094C31.2305 2.02941 31.3662 2.34184 31.6024 2.56707C31.8387 2.7923 32.1661 2.92188 32.5 2.92188C32.8339 2.92188 33.1614 2.7923 33.3974 2.56707C33.6337 2.34184 33.7695 2.02941 33.7695 1.71094C33.7695 1.39246 33.6337 1.08004 33.3974 0.854805Z" fill="#3C3C3C"/>
<path d="M28.0509 5.35812L26.1931 3.58604C25.6972 3.11317 24.8936 3.11317 24.3976 3.58604C23.9018 4.05891 23.9018 4.82567 24.3976 5.29867L26.2556 7.07075C26.5035 7.30725 26.8284 7.42544 27.1532 7.42544C27.4781 7.42544 27.803 7.30725 28.0509 7.07075C28.5467 6.59788 28.5467 5.83112 28.0509 5.35812Z" fill="#3C3C3C"/>
<path d="M40.6021 3.51951C40.1063 3.04664 39.3027 3.04664 38.8066 3.51951L36.8867 5.35081C36.391 5.82368 36.391 6.59045 36.8867 7.06344C37.1348 7.29994 37.4596 7.41812 37.7845 7.41812C38.1095 7.41812 38.4343 7.29994 38.6822 7.06344L40.6021 5.23214C41.0979 4.75927 41.0979 3.9925 40.6021 3.51951Z" fill="#3C3C3C"/>
</g>
<defs>
<clipPath id="clip0">
<rect width="65" height="62" fill="white" transform="translate(0 0.5)"/>
</clipPath>
</defs>
</svg>
