<svg width="65" height="65" viewBox="0 0 65 65" fill="none" xmlns="http://www.w3.org/2000/svg">
<path d="M38.7246 37.0187C43.6215 33.581 44.8044 26.8244 41.3665 21.9276C37.9287 17.0308 31.1722 15.8478 26.2754 19.2856C21.3786 22.7235 20.1956 29.4799 23.6335 34.3767C24.3544 35.4037 25.2484 36.2978 26.2754 37.0187C20.4908 38.0131 16.26 43.0245 16.25 48.894V63.9167C16.2499 64.5148 16.7347 64.9999 17.3328 65C17.3329 65 17.3332 65 17.3333 65H47.6667C48.2648 65.0001 48.7499 64.5153 48.75 63.9172C48.75 63.9171 48.75 63.9168 48.75 63.9167V48.8938C48.7398 43.0245 44.5092 38.0131 38.7246 37.0187ZM23.8333 28.1667C23.8333 23.3802 27.7136 19.5 32.5 19.5C37.2864 19.5 41.1667 23.3802 41.1667 28.1667C41.1667 32.9531 37.2864 36.8333 32.5 36.8333C27.7159 36.8279 23.8388 32.9508 23.8333 28.1667ZM46.5833 62.8333H18.4167V48.8938C18.4228 43.4322 22.8489 39.0061 28.3106 39H36.6895C42.1511 39.0061 46.5772 43.4322 46.5833 48.8938V62.8333Z" fill="#3C3C3C"/>
<path d="M33.5833 6.5H31.4167V10.8333H33.5833V6.5Z" fill="#3C3C3C"/>
<path d="M45.1828 9.1682L42.1187 12.2323L43.6507 13.7643L46.7148 10.7002L45.1828 9.1682Z" fill="#3C3C3C"/>
<path d="M59.5833 62.8333H55.25V65H59.5833V62.8333Z" fill="#3C3C3C"/>
<path d="M59.5833 52H55.25V54.1667H59.5833V52Z" fill="#3C3C3C"/>
<path d="M59.5833 41.1667H55.25V43.3334H59.5833V41.1667Z" fill="#3C3C3C"/>
<path d="M58.0486 29.7013L53.938 31.0724L54.6235 33.1277L58.7341 31.7566L58.0486 29.7013Z" fill="#3C3C3C"/>
<path d="M54.6827 18.467L50.5721 19.8381L51.2576 21.8934L55.3683 20.5223L54.6827 18.467Z" fill="#3C3C3C"/>
<path d="M19.8183 9.17068L18.286 10.7025L21.3497 13.767L22.882 12.2352L19.8183 9.17068Z" fill="#3C3C3C"/>
<path d="M9.75 62.8333H5.41666V65H9.75V62.8333Z" fill="#3C3C3C"/>
<path d="M9.75 52H5.41666V54.1667H9.75V52Z" fill="#3C3C3C"/>
<path d="M9.75 41.1667H5.41666V43.3334H9.75V41.1667Z" fill="#3C3C3C"/>
<path d="M6.95337 29.702L6.26849 31.7575L10.3795 33.1273L11.0644 31.0718L6.95337 29.702Z" fill="#3C3C3C"/>
<path d="M10.3142 18.4746L9.62892 20.5302L13.74 21.9008L14.4253 19.8453L10.3142 18.4746Z" fill="#3C3C3C"/>
<path d="M63.9167 4.33333C62.1225 4.33144 60.6686 2.87747 60.6667 1.08333C60.6667 0.485062 60.1816 0 59.5833 0C58.9851 0 58.5 0.485062 58.5 1.08333C58.4981 2.87747 57.0441 4.33144 55.25 4.33333C54.6517 4.33333 54.1667 4.8184 54.1667 5.41667C54.1667 6.01494 54.6517 6.5 55.25 6.5C57.0441 6.5019 58.4981 7.95586 58.5 9.75C58.5 10.3483 58.9851 10.8333 59.5833 10.8333C60.1816 10.8333 60.6667 10.3483 60.6667 9.75C60.6686 7.95586 62.1225 6.5019 63.9167 6.5C64.5149 6.5 65 6.01494 65 5.41667C65 4.8184 64.5149 4.33333 63.9167 4.33333ZM59.5833 6.50311C59.2742 6.09158 58.9084 5.72582 58.4969 5.41667C58.9084 5.10751 59.2742 4.74175 59.5833 4.33022C59.8925 4.74175 60.2582 5.10751 60.6698 5.41667C60.2582 5.72582 59.8925 6.09158 59.5833 6.50311Z" fill="#3C3C3C"/>
<path d="M9.75 4.33333C7.95586 4.33144 6.5019 2.87747 6.5 1.08333C6.5 0.485062 6.01494 0 5.41667 0C4.8184 0 4.33333 0.485062 4.33333 1.08333C4.33144 2.87747 2.87747 4.33144 1.08333 4.33333C0.485062 4.33333 0 4.8184 0 5.41667C0 6.01494 0.485062 6.5 1.08333 6.5C2.87747 6.5019 4.33144 7.95586 4.33333 9.75C4.33333 10.3483 4.8184 10.8333 5.41667 10.8333C6.01494 10.8333 6.5 10.3483 6.5 9.75C6.5019 7.95586 7.95586 6.5019 9.75 6.5C10.3483 6.5 10.8333 6.01494 10.8333 5.41667C10.8333 4.8184 10.3483 4.33333 9.75 4.33333ZM5.41667 6.50311C5.10751 6.09158 4.74175 5.72582 4.33022 5.41667C4.74175 5.10751 5.10751 4.74175 5.41667 4.33022C5.72582 4.74175 6.09158 5.10751 6.50311 5.41667C6.09158 5.72582 5.72582 6.09158 5.41667 6.50311Z" fill="#3C3C3C"/>
</svg>
