<svg width="65" height="65" viewBox="0 0 65 65" fill="none" xmlns="http://www.w3.org/2000/svg">
<g clip-path="url(#clip0)">
<path d="M24.1414 65.0001H5.27054C4.11259 65.0001 3.17383 64.0613 3.17383 62.9034C3.17383 61.7454 4.11259 60.8066 5.27054 60.8066H24.1414C25.2994 60.8066 26.2381 61.7454 26.2381 62.9034C26.2381 64.0613 25.2994 65.0001 24.1414 65.0001Z" fill="#3C3C3C"/>
<path d="M19.948 58.7099H5.27054C4.11259 58.7099 3.17383 57.7707 3.17383 56.6127C3.17383 55.4548 4.11259 54.516 5.27054 54.516H19.948C21.106 54.516 22.0447 55.4548 22.0447 56.6127C22.0447 57.7707 21.106 58.7099 19.948 58.7099Z" fill="#3C3C3C"/>
<path d="M11.5612 52.4193H5.27054C4.11259 52.4193 3.17383 51.4805 3.17383 50.3225C3.17383 49.1646 4.11259 48.2258 5.27054 48.2258H11.5612C12.7191 48.2258 13.6579 49.1646 13.6579 50.3225C13.6579 51.4805 12.7191 52.4193 11.5612 52.4193Z" fill="#3C3C3C"/>
<path d="M34.6255 6.39626V4.19342H36.7222C37.8801 4.19342 38.8189 3.25466 38.8189 2.09671C38.8189 0.938759 37.8801 0 36.7222 0H28.3353C27.1774 0 26.2381 0.938759 26.2381 2.09671C26.2381 3.25466 27.1774 4.19342 28.3353 4.19342H30.4321V6.39626C15.2245 7.47932 3.17383 20.1662 3.17383 35.6451C3.17383 36.803 4.11259 37.7418 5.27054 37.7418C6.42849 37.7418 7.36725 36.803 7.36725 35.6451C7.36725 21.7715 18.6547 10.484 32.5288 10.484C46.4024 10.484 57.6898 21.7715 57.6898 35.6451C57.6898 49.5192 46.4024 60.8066 32.5288 60.8066C31.3708 60.8066 30.4321 61.7453 30.4321 62.9033C30.4321 64.0612 31.3708 65 32.5288 65C48.7153 65 61.8837 51.8316 61.8837 35.6451C61.8837 20.1662 49.8331 7.47932 34.6255 6.39626Z" fill="#3C3C3C"/>
<path d="M32.9493 39.4159C34.0735 39.3584 35.1273 38.8263 35.8385 37.956L47.8549 23.2696C48.5372 22.4359 48.4762 21.221 47.715 20.4588C46.9508 19.6941 45.7378 19.6355 44.9042 20.3189L30.2188 32.3343C29.3475 33.0469 28.8154 34.1003 28.7578 35.2245C28.7013 36.3497 29.1253 37.4521 29.9218 38.25C29.9227 38.251 29.9227 38.251 29.9237 38.252C30.6731 39.0013 31.6941 39.4214 32.7484 39.4214C32.8154 39.4209 32.8818 39.4189 32.9493 39.4159Z" fill="#3C3C3C"/>
</g>
<defs>
<clipPath id="clip0">
<rect width="65" height="65" fill="white"/>
</clipPath>
</defs>
</svg>
