<svg width="65" height="65" viewBox="0 0 65 65" fill="none" xmlns="http://www.w3.org/2000/svg">
<path d="M42.5235 17.4946H11.396C10.8678 17.4946 10.4398 17.9227 10.4398 18.4508C10.4398 18.979 10.8678 19.4071 11.396 19.4071H42.5236C43.0517 19.4071 43.4798 18.979 43.4798 18.4508C43.4798 17.9227 43.0516 17.4946 42.5235 17.4946Z" fill="#3C3C3C"/>
<path d="M11.396 12.7741H26.9597C27.4878 12.7741 27.9159 12.346 27.9159 11.8179C27.9159 11.2898 27.4878 10.8617 26.9597 10.8617H11.396C10.8678 10.8617 10.4398 11.2898 10.4398 11.8179C10.4398 12.3462 10.8678 12.7741 11.396 12.7741Z" fill="#3C3C3C"/>
<path d="M42.5235 23.3716H11.396C10.8678 23.3716 10.4398 23.7997 10.4398 24.3278C10.4398 24.8559 10.8678 25.284 11.396 25.284H42.5236C43.0517 25.284 43.4798 24.8559 43.4798 24.3278C43.4797 23.7997 43.0516 23.3716 42.5235 23.3716Z" fill="#3C3C3C"/>
<path d="M18.4867 58.3563H8.52504C6.89001 58.3563 5.55967 57.0261 5.55967 55.391V4.87767C5.55967 3.24264 6.89001 1.91229 8.52504 1.91229H37.2236C37.3162 1.91229 37.4075 1.9208 37.4978 1.93299V7.89648C37.4978 10.5861 39.6859 12.7742 42.3754 12.7742H48.3388C48.3511 12.8645 48.3595 12.9558 48.3595 13.0485V29.3316C48.3595 29.8598 48.7876 30.2878 49.3157 30.2878C49.8438 30.2878 50.2719 29.8598 50.2719 29.3316V13.0486C50.2719 11.9997 49.8634 11.0136 49.1217 10.2718L40.0001 1.1502C39.2585 0.408535 38.2724 0 37.2236 0H8.52504C5.83541 0 3.64738 2.18816 3.64738 4.87767V55.391C3.64738 58.0805 5.83554 60.2686 8.52504 60.2686H18.4867C19.0148 60.2686 19.4429 59.8405 19.4429 59.3124C19.4429 58.7842 19.0148 58.3563 18.4867 58.3563ZM47.0073 10.8619H42.3756C40.7405 10.8619 39.4102 9.53151 39.4102 7.89648V3.26473L47.0073 10.8619Z" fill="#3C3C3C"/>
<path d="M61.0591 46.8113L52.9572 33.1359C52.3668 32.1388 51.0817 31.8092 50.0841 32.4002L48.1135 33.5678C46.5838 34.474 45.9372 36.3078 46.4624 37.933C45.7985 38.1735 45.0705 38.1697 44.4002 37.9106C42.8443 37.4211 41.6613 36.4363 39.7076 36.9304C36.3903 37.775 36.4912 37.7327 36.191 37.8356C34.2487 36.7297 33.0811 36.4006 31.0191 37.1983L29.1811 37.9088C28.3301 38.2376 27.3924 38.1597 26.6061 37.6938L26.1045 37.3981C26.3492 35.9315 25.6989 34.3838 24.3217 33.568C24.3217 33.568 24.3217 33.568 24.3216 33.5679L22.351 32.4005C21.3562 31.8113 20.0674 32.1411 19.478 33.1359L11.3759 46.8114C10.7854 47.8083 11.114 49.0937 12.1113 49.6844L14.0819 50.8518C14.6782 51.2051 15.3335 51.3731 15.981 51.3731C16.703 51.3731 17.4148 51.1639 18.0234 50.7698L18.4341 51.0122L17.567 52.2199C16.5337 53.6593 16.862 55.6608 18.3017 56.6942C18.9674 57.1721 19.8038 57.3903 20.6687 57.2545C20.806 58.0567 21.2455 58.8075 21.9572 59.3186C22.6256 59.7985 23.4581 60.017 24.3246 59.8805C24.4622 60.6821 24.9015 61.4322 25.6128 61.943C26.5687 62.6291 27.7573 62.7085 28.7476 62.2855C28.9644 62.8484 29.341 63.3567 29.8665 63.734C31.2386 64.7188 33.1287 64.462 34.1948 63.1861L36.499 64.5511C38.0228 65.4541 39.989 64.9523 40.8925 63.4267C41.1235 63.0367 41.2669 62.6116 41.3193 62.1748L41.3245 62.178C42.846 63.0791 44.8166 62.5746 45.718 61.0534C45.979 60.6127 46.1221 60.1348 46.1569 59.6558C47.498 59.993 48.9596 59.4297 49.6997 58.1805C49.9426 57.7706 50.0834 57.328 50.1297 56.8825C51.5671 57.4465 53.2471 56.9014 54.0588 55.5313C54.4954 54.7944 54.6189 53.9316 54.4065 53.1017C54.285 52.6269 54.0616 52.1959 53.7549 51.8319L55.0249 51.0899C56.0993 51.5309 57.3254 51.4603 58.353 50.8517L60.3233 49.6842C61.3206 49.0939 61.6501 47.8088 61.0591 46.8113ZM15.0566 49.2066L13.0861 48.0391C12.9985 47.9871 12.9694 47.8736 13.0212 47.786L21.1233 34.1103C21.1755 34.0223 21.2894 33.9937 21.3765 34.0455L23.3469 35.2129C24.2225 35.7317 24.4965 36.8547 23.9872 37.7143L17.5581 48.5663C17.045 49.4326 15.923 49.7197 15.0566 49.2066ZM19.4168 55.1407C18.8362 54.7238 18.7034 53.9161 19.1205 53.3352L20.395 51.5598C20.801 50.9943 21.6101 50.8395 22.2005 51.2634C22.7801 51.6794 22.913 52.4893 22.4971 53.0688L21.2225 54.8441C20.8065 55.4239 19.9961 55.5565 19.4168 55.1407ZM23.0725 57.7652C22.4929 57.349 22.36 56.539 22.776 55.9595L24.0505 54.1844C24.0505 54.1844 24.0505 54.1844 24.0505 54.1842C24.0505 54.1842 24.0505 54.1841 24.0506 54.1841L25.4571 52.225C25.6587 51.9443 25.9575 51.7587 26.2985 51.7028C26.3693 51.6911 26.4403 51.6854 26.5107 51.6854C26.7791 51.6854 27.0403 51.7689 27.2627 51.9285C27.5432 52.1301 27.7288 52.4287 27.7847 52.7697C27.8407 53.1108 27.7606 53.4532 27.559 53.7339L24.8779 57.4686C24.4612 58.0494 23.6534 58.1824 23.0725 57.7652ZM26.7281 60.3894C26.1488 59.9735 26.0157 59.1641 26.431 58.5847C26.4311 58.5844 26.4314 58.5842 26.4315 58.5839L29.1126 54.8493C29.5284 54.2699 30.3389 54.1369 30.9182 54.5528C31.4977 54.9688 31.6306 55.7788 31.2146 56.3583L30.0234 58.0177C30.0234 58.0177 30.0234 58.0177 30.0233 58.0178L28.5335 60.093C28.1175 60.6725 27.3077 60.8057 26.7281 60.3894ZM30.9818 62.1805C30.4026 61.7646 30.2694 60.9555 30.6844 60.376L31.5768 59.1331C31.9927 58.5534 32.803 58.4209 33.3823 58.8367C33.9617 59.2526 34.0948 60.0627 33.6788 60.6422L32.7872 61.8839C32.3713 62.4636 31.5611 62.5966 30.9818 62.1805ZM52.4139 54.5567C52.05 55.1708 51.2548 55.3744 50.6406 55.0107C49.6006 54.3946 42.8919 50.4201 42.1766 49.9963C41.7221 49.7272 41.1357 49.8771 40.8666 50.3314C40.5975 50.7858 40.7474 51.3723 41.2017 51.6415L47.6006 55.4324L47.6007 55.4326C48.215 55.7964 48.4199 56.5892 48.0547 57.206C47.6907 57.8203 46.8951 58.0235 46.2811 57.6601C43.9145 56.258 41.9928 55.1195 39.8789 53.8671C39.4243 53.598 38.838 53.7479 38.5689 54.2022C38.2997 54.6566 38.4497 55.2431 38.904 55.5123L43.6188 58.3055L43.6198 58.3061C44.2345 58.6711 44.4374 59.4636 44.0729 60.079C43.7089 60.6934 42.9136 60.8969 42.2993 60.533L39.769 59.0341C39.7687 59.034 39.7683 59.0338 39.7681 59.0336C39.7678 59.0335 39.7676 59.0333 39.7673 59.0332L37.9208 57.9391C37.4663 57.6698 36.8799 57.8198 36.6107 58.2743C36.3416 58.7286 36.4915 59.3152 36.9459 59.5843L38.7928 60.6785C38.7931 60.6786 38.7933 60.6789 38.7936 60.679C39.4079 61.0429 39.6128 61.8356 39.2476 62.4523C38.8836 63.0666 38.0882 63.2701 37.4739 62.9063L35.3194 61.63C36.243 60.2048 35.8917 58.2843 34.4976 57.2837C34.0882 56.9899 33.6323 56.8069 33.166 56.7284C33.6606 55.4059 33.2342 53.8619 32.0333 52.9999C31.3224 52.4893 30.4712 52.3129 29.6678 52.4389C29.5249 51.6029 29.0677 50.8706 28.378 50.3756C27.0808 49.4447 25.3179 49.6236 24.229 50.7251C24.0077 50.3365 23.7023 49.9879 23.3158 49.7105C22.2379 48.9369 20.8383 48.9296 19.7712 49.5813L19.3331 49.3227L25.3468 39.1716L25.6331 39.3405C26.8976 40.0895 28.4405 40.2457 29.8705 39.6926L31.7086 38.9821C32.7604 38.5756 33.3404 38.5491 34.3808 39.04C33.7001 39.8048 33.296 40.8088 33.296 41.891V46.1306C33.296 47.2566 34.2115 48.1734 35.3366 48.1741H35.3394C36.468 48.1741 37.5294 47.7347 38.3278 46.9368C38.7932 46.4717 39.1367 45.9172 39.3426 45.3118C40.5773 46.043 50.7776 52.0833 51.9601 52.7839C52.2576 52.9601 52.4686 53.2416 52.5543 53.5765C52.64 53.911 52.5901 54.2593 52.4139 54.5567ZM59.3491 48.0391L57.3784 49.2066C56.512 49.7195 55.39 49.4322 54.8771 48.5664L51.8638 43.48C51.5945 43.0257 51.0077 42.8757 50.5537 43.1446C50.0994 43.4138 49.9493 44.0003 50.2183 44.4547L53.2317 49.5412C53.2884 49.6369 53.35 49.7279 53.4137 49.8167L52.576 50.3061C52.4066 50.4064 52.2437 50.5168 52.088 50.6368L39.0978 42.944C38.4613 42.5674 37.6544 43.0266 37.6544 43.7667C37.6444 43.8238 37.7532 44.8067 36.9759 45.5838C36.5386 46.0206 35.9574 46.2613 35.3393 46.2613C35.3388 46.2613 35.3383 46.2613 35.3378 46.2613C35.2663 46.2613 35.2082 46.2024 35.2082 46.1301V41.8905C35.2082 40.7829 35.9701 39.8485 37.0006 39.5877L40.1765 38.7839C41.3288 38.4927 41.9802 39.108 43.7056 39.692C44.9034 40.1554 46.2059 40.1268 47.3619 39.6331L47.939 40.6073C48.2083 41.062 48.7948 41.2118 49.2491 40.9428C49.7034 40.6736 49.8535 40.0871 49.5845 39.6327L48.4477 37.7141C47.9334 36.846 48.22 35.7273 49.0879 35.2127L51.0585 34.0454C51.1446 33.9942 51.2585 34.0204 51.3118 34.1103L59.4137 47.7858C59.466 47.874 59.4372 47.9869 59.3491 48.0391Z" fill="#3C3C3C"/>
</svg>
